# xmcd
#
# Track frame offsets:
#	150
#	11347
#	30366
#	61593
#	79567
#	90123
#	101743
#	123580
#	134950
#	154260
#
# Disc length: 2222 seconds
# Revision: 0
# Processed by: cddbd v1.5.2PL0 Copyright (c) Steve Scherf et al.
# Submitted via: dBpowerAMP V12.0
#
DISCID=6f08ac0a
DTITLE=Basic Station - Trackin' on a Trail
DYEAR=2005
DGENRE=Blues
TTITLE0=Stevie Thing
TTITLE1=Fat Lip, Black Eye
TTITLE2=Willow Tree
TTITLE3=Zo dood als een pier
TTITLE4=Intercourse
TTITLE5=She's gone
TTITLE6=Eindeloze vrouw
TTITLE7=She's my baby
TTITLE8=Hunters
TTITLE9=Well Baby
EXTD=
EXTT0=
EXTT1=
EXTT2=
EXTT3=
EXTT4=
EXTT5=
EXTT6=
EXTT7=
EXTT8=
EXTT9=
PLAYORDER=
